<svg xmlns="http://www.w3.org/2000/svg" width="800" height="337.461" version="1.0" viewBox="0 0 599.99998 253.09575"><g style="fill:#ef426f;fill-opacity:1;stroke-width:2.52586"><path d="M9010 7778c-62-251-188-488-353-664-166-178-417-320-646-365-47-9-61-16-61-29 0-14 19-22 89-38 464-108 828-482 961-986 22-82 24-86 51-86 25 0 29 5 39 43 74 300 233 573 440 754 165 144 360 240 573 283 87 17 75 38-38 66-50 12-119 33-155 47-388 146-690 494-804 927-22 82-24 85-54 88-29 3-32 0-42-40zm155-778c77-99 220-221 308-261 15-7 27-15 27-18 0-4-17-15-37-26-67-36-187-130-242-191-55-60-145-189-156-224-9-28-21-25-35 11-46 110-190 271-321 358-47 32-93 61-100 65-9 4-10 8-3 11 138 68 310 228 394 368l53 87 35-62c19-34 54-88 77-118zM5995 6836c-185-37-331-118-456-254-80-87-123-159-160-264-32-96-49-187-49-274 0-108 50-262 114-349 41-55 40-59-10-24-27 19-123 110-214 203-412 421-445 452-532 509-280 186-567 218-819 91-99-49-231-181-276-274-96-201-97-402-3-588 70-138 163-221 304-269 125-44 334-42 484 2 28 9 52 20 52 25s-12 18-27 27c-21 14-51 18-141 20-186 2-291 40-376 134-65 72-90 157-84 283 10 196 109 301 306 325 96 12 198 2 286-29 134-46 196-83 681-411 537-362 948-471 1322-349 86 28 93 35 65 63-27 26-81 29-212 9-240-38-479 85-583 298-119 245-23 546 208 651 87 39 179 53 300 45 278-17 499-115 1080-476 229-143 496-293 650-366 176-84 347-128 421-110 27 7 27 8 8 26-42 40-1335 1017-1419 1072-176 114-371 200-544 239-116 26-286 32-376 15zM11825 6840c-206-33-425-121-638-257-38-24-377-278-754-565-488-371-681-523-671-529 46-29 221 9 398 87 110 48 430 225 605 334 592 368 804 471 1059 515 111 19 211 19 299 0 301-64 451-393 311-685-102-214-339-335-582-299-134 21-187 18-214-9-28-28-23-32 82-66 374-120 784-4 1350 382 419 286 553 364 690 399 84 21 237 21 311 0 160-47 235-168 227-366-5-115-33-186-98-250-82-80-182-111-360-114-92-2-122-6-143-20-15-9-27-21-27-26 0-11 90-39 165-51 86-14 229-12 307 5 163 34 298 138 370 285 53 108 71 193 65 315-13 281-175 498-442 592-73 25-92 28-220 28-151 0-190-8-329-67-176-74-306-184-660-561-115-122-214-214-306-281-8-6 3 11 23 39 93 121 132 254 124 415-7 128-25 198-82 316-93 193-299 359-514 415-88 23-259 32-346 19zM1470 4425c0-17 30-72 47-87 10-10 53-24 94-32s86-19 100-24c34-14 66-55 79-102 7-25 9-451 8-1252-3-1146-4-1215-21-1246-25-46-69-69-155-83-51-8-83-20-102-36-28-23-54-76-43-87 4-3 536-6 1184-6h1177l6 38c15 98 67 654 62 659-9 10-92-26-114-50-11-12-38-63-60-114-76-178-145-255-284-322-178-85-319-111-591-111-174 0-184 1-237 26-66 31-95 56-123 109-22 39-22 48-25 643l-3 602h253c285-1 377-12 460-57 63-34 88-77 119-203 22-90 57-140 99-140 20 0 20 8 20 450 0 437-1 450-19 450-11 0-33-11-49-25-24-20-34-42-51-112-31-129-56-172-119-206-83-45-175-56-459-57h-253v1293l283-6c234-5 299-9 382-27 99-21 210-62 291-107 96-54 163-161 205-326 23-92 52-132 99-139l25-3v118c0 64-1 221-3 347l-2 230H2610c-627 0-1140-2-1140-5zM4327 4398c-8-44-12-657-4-664 10-10 73 16 96 40 12 13 31 56 42 97 34 121 91 230 149 282 61 55 189 119 294 146 88 23 249 41 369 41h77l-2-1302-3-1303-24-42c-32-56-84-81-197-94-49-6-100-13-113-15-34-7-81-58-81-88v-26h1520v23c0 59-53 91-162 101-153 13-223 54-247 143-7 26-11 456-11 1321v1282h84c210 0 389-35 524-101 150-75 219-162 276-351 15-47 36-97 46-111 22-28 87-54 99-41 4 5 5 162 2 349l-6 340-1361 3-1362 2zM7370 4415c0-29 30-74 58-88 15-8 60-19 99-26 79-14 113-35 141-84 16-29 17-105 23-937 5-765 8-920 22-1000 71-420 267-687 587-798 116-40 213-55 355-56 257 0 477 88 658 263 84 81 129 141 184 245l41 80 4-164c3-148 6-169 26-207 35-66 79-110 140-140l57-28 383-3c363-3 382-2 382 15 0 24-35 79-57 91-10 5-50 15-89 21-122 21-156 55-174 178-6 42-10 566-10 1361v1292h-990v-25c0-14 12-38 28-55 22-25 41-33 106-45 102-19 135-39 166-100l25-50 3-937c3-1047 6-990-68-1138-46-92-143-224-205-278-205-180-518-176-704 10-103 104-168 261-190 466-7 69-11 444-11 1127v1025h-495c-440 0-495-2-495-15zM10940 4425c0-16 30-72 47-87 10-10 54-24 97-33 93-17 133-39 161-85 20-35 20-46 20-1270 0-1222 0-1235-20-1270-25-43-73-68-157-81-34-5-74-18-88-28-27-19-62-79-54-93 8-12 1326-10 1469 3 245 21 444 77 660 184 175 87 295 175 446 325 264 263 390 537 418 909 21 266-28 530-134 741-171 336-558 610-1025 723-244 60-251 60-1077 64-420 3-763 2-763-2zm1301-94c233-25 432-116 612-281 203-187 320-452 358-818 17-169 7-556-19-702-42-234-117-426-220-560-104-137-262-265-409-332-115-52-204-70-348-72-120-1-134 1-179 24-36 18-56 36-70 65-21 40-21 51-24 1363l-2 1322h107c60 0 147-4 194-9zM14190 4414c0-28 39-81 68-92 15-6 50-14 77-17 83-11 131-37 157-87l23-43V1735l-21-46c-25-53-62-75-156-90-77-12-114-31-133-69-34-65-135-60 1165-60 936 0 1182 3 1185 13 6 17 74 681 70 685-2 2-20-1-42-7-50-14-96-62-123-131-36-93-88-183-136-237-77-89-265-172-468-208-116-20-444-20-499-1-59 22-111 62-138 109l-24 42-3 608-3 609 288-5c215-3 301-8 338-19 129-38 166-82 200-236 9-37 21-78 27-90 12-23 55-52 78-52 7 0 10 142 10 450s-3 450-10 450c-23 0-66-29-78-52-6-12-18-53-27-90-34-154-71-198-200-236-37-11-123-16-337-19l-288-5v1295l278-6c288-6 373-16 499-57 103-34 218-97 259-142 44-50 96-158 119-253 23-94 40-124 80-141 19-8 37-14 40-14s4 156 3 348l-3 347-1137 3c-1048 2-1138 1-1138-14z" style="fill:#ef426f;fill-opacity:1;stroke-width:2.52586" transform="matrix(.03959 0 0 -.03959 -58.198 309.552)"/></g></svg>